<svg xmlns="http://www.w3.org/2000/svg" viewBox="55.43 87.67 252.66 52.81"><path class="cls-1" d="M66.57,110.89c2.03-3.06,4.46-4.59,7.31-4.59,4.4,0,7.68,1.88,9.83,5.63,.48-.65,1.05-1.33,1.71-2.04s1.74-1.49,3.2-2.33c1.47-.84,2.98-1.26,4.53-1.26,3.45,0,6.34,1.33,8.67,3.98,2.33,2.65,3.49,7.04,3.49,13.16v11.32c0,.99-.03,1.74-.1,2.23-.06,.5-.27,1.07-.61,1.71-.56,1.16-2.22,1.75-4.98,1.75s-4.38-.6-4.98-1.81c-.3-.65-.49-1.22-.55-1.71s-.1-1.24-.1-2.23v-11.32c0-3.75-1.34-5.63-4.01-5.63-1.51,0-2.53,.5-3.07,1.49-.54,.99-.81,2.39-.81,4.21v11.32c0,1.04-.03,1.79-.1,2.26-.06,.48-.27,1.04-.61,1.68-.61,1.16-2.29,1.75-5.05,1.75s-4.38-.6-4.98-1.81c-.3-.65-.49-1.22-.55-1.71-.06-.5-.1-1.24-.1-2.23v-11.32c0-3.75-1.34-5.63-4.01-5.63s-3.88,1.88-3.88,5.63v11.45c0,.99-.03,1.74-.1,2.23-.06,.5-.27,1.07-.61,1.71-.65,1.12-2.33,1.68-5.05,1.68s-4.38-.58-4.98-1.75c-.3-.65-.49-1.21-.55-1.68-.06-.47-.1-1.23-.1-2.26v-22.77c0-.99,.03-1.74,.1-2.23s.27-1.05,.61-1.65c.65-1.16,2.18-1.75,4.59-1.75s3.99,.39,4.72,1.16c.73,.78,1.1,1.9,1.1,3.36Z"></path><path class="cls-1" d="M127.63,115.56c.21-1.97,1.6-2.96,4.18-2.96,1.37,0,2.4,.11,3.07,.32,.67,.21,1.14,.58,1.4,1.11s.42,1,.47,1.4c.05,.41,.08,1.01,.08,1.82v18.5c0,.81-.03,1.42-.08,1.82-.05,.4-.2,.87-.45,1.4-.49,.92-1.7,1.38-3.62,1.38s-3.21-.24-3.86-.71c-.65-.47-1.03-1.17-1.14-2.09-1.3,1.87-3.48,2.8-6.53,2.8s-5.88-1.39-8.48-4.18c-2.61-2.78-3.91-6.02-3.91-9.7s1.31-6.91,3.94-9.67c2.63-2.77,5.51-4.15,8.64-4.15,1.2,0,2.29,.21,3.28,.63,.99,.42,1.67,.82,2.06,1.19,.39,.37,.7,.73,.95,1.08Zm-9.62,10.99c0,1.16,.46,2.21,1.37,3.15,.92,.93,2.03,1.4,3.33,1.4s2.39-.48,3.25-1.43c.86-.95,1.29-2,1.29-3.14s-.42-2.21-1.24-3.2c-.83-.99-1.94-1.48-3.33-1.48s-2.52,.49-3.38,1.48c-.86,.99-1.29,2.06-1.29,3.22Z"></path><path class="cls-1" d="M157.92,121.95l-3.44-.21v7.29c0,.95,.15,1.64,.45,2.06,.3,.42,.86,.63,1.69,.63s1.46,.03,1.9,.08c.44,.05,.91,.22,1.4,.5,.81,.46,1.22,1.64,1.22,3.54,0,2.22-.49,3.58-1.48,4.07-.53,.25-1,.4-1.4,.45-.41,.05-1,.08-1.77,.08-3.67,0-6.45-.83-8.35-2.48s-2.85-4.46-2.85-8.4v-7.82c-.67,.11-1.39,.16-2.17,.16s-1.42-.3-1.93-.9c-.51-.6-.77-1.62-.77-3.07s.09-2.49,.26-3.15c.18-.65,.42-1.12,.74-1.4,.56-.46,1.27-.69,2.11-.69l1.74,.21v-5.44c0-.81,.03-1.41,.08-1.8,.05-.39,.22-.81,.5-1.27,.46-.88,1.81-1.32,4.07-1.32,2.4,0,3.82,.65,4.28,1.96,.18,.56,.26,1.46,.26,2.7v5.18c1.55-.14,2.72-.21,3.52-.21s1.39,.03,1.8,.08c.4,.05,.87,.22,1.4,.5,.92,.46,1.37,1.82,1.37,4.07s-.48,3.58-1.43,4.07c-.53,.25-1,.4-1.4,.45-.41,.05-1.01,.08-1.82,.08Z"></path><path class="cls-1" d="M184.4,112.91c.67,.21,1.22,.57,1.66,1.08,.44,.51,.66,1.33,.66,2.46s-.33,2.36-1,3.7c-.67,1.34-1.64,2.01-2.91,2.01-.63,0-1.24-.14-1.82-.42-.58-.28-1.35-.42-2.3-.42s-1.84,.33-2.67,1c-.83,.67-1.24,1.48-1.24,2.43v11.1c0,.81-.03,1.42-.08,1.82-.05,.41-.22,.87-.5,1.4-.53,.92-1.9,1.37-4.12,1.37-1.69,0-2.91-.3-3.65-.9-.56-.49-.88-1.25-.95-2.27v-20.09c0-.81,.03-1.42,.08-1.82s.2-.85,.45-1.35c.49-.95,1.87-1.43,4.12-1.43,2.11,0,3.44,.4,3.96,1.22,.39,.56,.58,1.15,.58,1.74,.18-.25,.43-.55,.77-.9,.33-.35,1.05-.83,2.14-1.43,1.09-.6,2.05-.9,2.88-.9s1.52,.04,2.09,.13c.56,.09,1.18,.24,1.85,.45Z"></path><path class="cls-1" d="M206.12,115.56c.21-1.97,1.6-2.96,4.18-2.96,1.37,0,2.4,.11,3.07,.32,.67,.21,1.14,.58,1.4,1.11s.42,1,.47,1.4c.05,.41,.08,1.01,.08,1.82v18.5c0,.81-.03,1.42-.08,1.82-.05,.4-.2,.87-.45,1.4-.49,.92-1.7,1.38-3.62,1.38s-3.21-.24-3.86-.71c-.65-.47-1.03-1.17-1.14-2.09-1.3,1.87-3.48,2.8-6.53,2.8s-5.88-1.39-8.48-4.18c-2.61-2.78-3.91-6.02-3.91-9.7s1.31-6.91,3.94-9.67c2.63-2.77,5.51-4.15,8.64-4.15,1.2,0,2.29,.21,3.28,.63,.99,.42,1.67,.82,2.06,1.19,.39,.37,.7,.73,.95,1.08Zm-9.62,10.99c0,1.16,.46,2.21,1.37,3.15,.92,.93,2.03,1.4,3.33,1.4s2.39-.48,3.25-1.43c.86-.95,1.29-2,1.29-3.14s-.42-2.21-1.24-3.2c-.83-.99-1.94-1.48-3.33-1.48s-2.52,.49-3.38,1.48c-.86,.99-1.29,2.06-1.29,3.22Z"></path><path class="cls-1" d="M228.64,116.3c1.66-2.5,3.65-3.75,5.97-3.75,3.59,0,6.27,1.53,8.03,4.6,.39-.53,.85-1.08,1.4-1.67s1.42-1.22,2.62-1.9c1.2-.69,2.43-1.03,3.7-1.03,2.82,0,5.18,1.08,7.08,3.25,1.9,2.17,2.85,5.75,2.85,10.76v9.25c0,.81-.03,1.42-.08,1.82-.05,.41-.22,.87-.5,1.4-.46,.95-1.81,1.43-4.07,1.43s-3.58-.49-4.07-1.48c-.25-.53-.4-1-.45-1.4s-.08-1.01-.08-1.82v-9.25c0-3.07-1.09-4.6-3.28-4.6-1.23,0-2.07,.41-2.51,1.22-.44,.81-.66,1.96-.66,3.44v9.25c0,.85-.03,1.46-.08,1.85-.05,.39-.22,.85-.5,1.38-.49,.95-1.87,1.43-4.12,1.43s-3.58-.49-4.07-1.48c-.25-.53-.4-1-.45-1.4-.05-.4-.08-1.01-.08-1.82v-9.25c0-3.07-1.09-4.6-3.28-4.6s-3.17,1.53-3.17,4.6v9.36c0,.81-.03,1.42-.08,1.82-.05,.41-.22,.87-.5,1.4-.53,.92-1.9,1.37-4.12,1.37s-3.58-.48-4.07-1.43c-.25-.53-.4-.99-.45-1.38-.05-.39-.08-1-.08-1.85v-18.61c0-.81,.03-1.42,.08-1.82s.22-.85,.5-1.35c.53-.95,1.78-1.43,3.75-1.43s3.26,.32,3.86,.95c.6,.63,.9,1.55,.9,2.75Z"></path><path class="cls-1" d="M285.6,87.67c-12.42,0-22.49,10.07-22.49,22.49s10.07,22.49,22.49,22.49,22.49-10.07,22.49-22.49-10.07-22.49-22.49-22.49Zm15.51,20.8c0,.88-.04,1.53-.11,1.96-.25,3.1-1.16,5.76-2.75,7.98s-3.59,3.33-6.03,3.33c-.25,0-.47-.19-.66-.56-.19-.37-.29-.85-.29-1.45s.08-1.07,.24-1.4c.16-.33,.33-.53,.53-.58,.19-.05,.34-.09,.45-.11,.11-.02,.3-.11,.58-.26,.28-.16,.53-.38,.74-.66,.56-.74,.88-1.89,.95-3.44-1.2-.18-2.09-.56-2.67-1.16-.58-.6-.87-1.87-.87-3.81,0-1.41,.18-2.46,.53-3.15,.35-.69,.89-1.14,1.61-1.37,.72-.23,1.84-.34,3.36-.34s2.68,.37,3.49,1.11c.6,.6,.9,1.62,.9,3.07v.85Z"></path></svg>